{
    "asset" : {
        "generator" : "Khronos glTF Blender I/O v1.8.19",
        "version" : "2.0"
    },
    "scene" : 0,
    "scenes" : [
        {
            "name" : "Scene",
            "nodes" : [
                3
            ]
        }
    ],
    "nodes" : [
        {
            "mesh" : 0,
            "name" : "Object_3",
            "translation" : [
                -42.98322677612305,
                -30.61244010925293,
                -4.113052000320749e-06
            ]
        },
        {
            "children" : [
                0
            ],
            "name" : "Object_2"
        },
        {
            "children" : [
                1
            ],
            "name" : "spacecraft.obj.cleaner.gles"
        },
        {
            "children" : [
                2
            ],
            "name" : "Sketchfab_model",
            "rotation" : [
                -0.7071068286895752,
                0,
                0,
                0.7071068286895752
            ]
        }
    ],
    "materials" : [
        {
            "doubleSided" : true,
            "name" : "material",
            "pbrMetallicRoughness" : {
                "baseColorFactor" : [
                    1,
                    0,
                    0.13179250061511993,
                    1
                ],
                "metallicFactor" : 0,
                "roughnessFactor" : 0.4363636374473572
            }
        }
    ],
    "meshes" : [
        {
            "name" : "Object_0",
            "primitives" : [
                {
                    "attributes" : {
                        "POSITION" : 0,
                        "NORMAL" : 1,
                        "TEXCOORD_0" : 2
                    },
                    "indices" : 3,
                    "material" : 0
                }
            ]
        }
    ],
    "accessors" : [
        {
            "bufferView" : 0,
            "componentType" : 5126,
            "count" : 7218,
            "max" : [
                83.99800109863281,
                61.00199890136719,
                51.000999450683594
            ],
            "min" : [
                0,
                0,
                0
            ],
            "type" : "VEC3"
        },
        {
            "bufferView" : 1,
            "componentType" : 5126,
            "count" : 7218,
            "type" : "VEC3"
        },
        {
            "bufferView" : 2,
            "componentType" : 5126,
            "count" : 7218,
            "type" : "VEC2"
        },
        {
            "bufferView" : 3,
            "componentType" : 5123,
            "count" : 7497,
            "type" : "SCALAR"
        }
    ],
    "bufferViews" : [
        {
            "buffer" : 0,
            "byteLength" : 86616,
            "byteOffset" : 0
        },
        {
            "buffer" : 0,
            "byteLength" : 86616,
            "byteOffset" : 86616
        },
        {
            "buffer" : 0,
            "byteLength" : 57744,
            "byteOffset" : 173232
        },
        {
            "buffer" : 0,
            "byteLength" : 14994,
            "byteOffset" : 230976
        }
    ],
    "buffers" : [
        {
            "byteLength" : 245972,
            "uri" : "data:application/octet-stream;base64,"
        }
    ]
}
