{
  "accessors": [
    {
      "bufferView": 2,
      "componentType": 5126,
      "count": 1282,
      "max": [
        9.787469863891602,
        6.6631999015808105,
        0.31764888763427734
      ],
      "min": [
        -18.31961441040039,
        -6.663198947906494,
        -5.697932243347168
      ],
      "type": "VEC3"
    },
    {
      "bufferView": 2,
      "byteOffset": 15384,
      "componentType": 5126,
      "count": 1282,
      "max": [
        1.0,
        1.0,
        0.999930202960968
      ],
      "min": [
        -1.0,
        -1.0,
        -1.0
      ],
      "type": "VEC3"
    },
    {
      "bufferView": 1,
      "componentType": 5126,
      "count": 1282,
      "max": [
        1.0000001192092896,
        1.0
      ],
      "min": [
        0.0,
        0.0
      ],
      "type": "VEC2"
    },
    {
      "bufferView": 0,
      "componentType": 5125,
      "count": 3210,
      "type": "SCALAR"
    },
    {
      "bufferView": 2,
      "byteOffset": 30768,
      "componentType": 5126,
      "count": 1498,
      "max": [
        9.832931518554688,
        5.9990410804748535,
        -0.17269158363342285
      ],
      "min": [
        -18.042314529418945,
        -5.9990410804748535,
        -5.726225852966309
      ],
      "type": "VEC3"
    },
    {
      "bufferView": 2,
      "byteOffset": 48744,
      "componentType": 5126,
      "count": 1498,
      "max": [
        1.0,
        1.0,
        1.0
      ],
      "min": [
        -1.0,
        -1.0,
        -1.0
      ],
      "type": "VEC3"
    },
    {
      "bufferView": 1,
      "byteOffset": 10256,
      "componentType": 5126,
      "count": 1498,
      "max": [
        1.0,
        1.0
      ],
      "min": [
        0.0,
        0.0
      ],
      "type": "VEC2"
    },
    {
      "bufferView": 0,
      "byteOffset": 12840,
      "componentType": 5125,
      "count": 2640,
      "type": "SCALAR"
    },
    {
      "bufferView": 2,
      "byteOffset": 66720,
      "componentType": 5126,
      "count": 1030,
      "max": [
        9.212724685668945,
        5.848490238189697,
        -1.9987196922302246
      ],
      "min": [
        -16.753276824951172,
        -5.848489284515381,
        -6.524955749511719
      ],
      "type": "VEC3"
    },
    {
      "bufferView": 2,
      "byteOffset": 79080,
      "componentType": 5126,
      "count": 1030,
      "max": [
        1.0,
        0.993868887424469,
        1.0
      ],
      "min": [
        -1.0,
        -0.9938685297966003,
        -1.0
      ],
      "type": "VEC3"
    },
    {
      "bufferView": 1,
      "byteOffset": 22240,
      "componentType": 5126,
      "count": 1030,
      "max": [
        1.0,
        1.0
      ],
      "min": [
        -1.564621925354004e-07,
        0.0
      ],
      "type": "VEC2"
    },
    {
      "bufferView": 0,
      "byteOffset": 23400,
      "componentType": 5125,
      "count": 3948,
      "type": "SCALAR"
    },
    {
      "bufferView": 2,
      "byteOffset": 91440,
      "componentType": 5126,
      "count": 173,
      "max": [
        9.580936431884766,
        6.603822708129883,
        -0.1786041408777237
      ],
      "min": [
        -13.144248962402344,
        -6.603821754455566,
        -2.2298974990844727
      ],
      "type": "VEC3"
    },
    {
      "bufferView": 2,
      "byteOffset": 93516,
      "componentType": 5126,
      "count": 173,
      "max": [
        0.902081310749054,
        0.9999628663063049,
        0.9999776482582092
      ],
      "min": [
        -0.9282435774803162,
        -0.9999628663063049,
        -0.9969272613525391
      ],
      "type": "VEC3"
    },
    {
      "bufferView": 1,
      "byteOffset": 30480,
      "componentType": 5126,
      "count": 173,
      "max": [
        1.0,
        1.0
      ],
      "min": [
        0.0,
        0.0
      ],
      "type": "VEC2"
    },
    {
      "bufferView": 0,
      "byteOffset": 39192,
      "componentType": 5125,
      "count": 294,
      "type": "SCALAR"
    },
    {
      "bufferView": 2,
      "byteOffset": 95592,
      "componentType": 5126,
      "count": 476,
      "max": [
        9.556262969970703,
        5.852147579193115,
        -1.5899319648742676
      ],
      "min": [
        -14.249128341674805,
        -5.8521504402160645,
        -4.062068939208984
      ],
      "type": "VEC3"
    },
    {
      "bufferView": 2,
      "byteOffset": 101304,
      "componentType": 5126,
      "count": 476,
      "max": [
        0.9976980686187744,
        0.9472901225090027,
        0.9736167788505554
      ],
      "min": [
        -0.9682976603507996,
        -0.9472901225090027,
        -0.9734745621681213
      ],
      "type": "VEC3"
    },
    {
      "bufferView": 1,
      "byteOffset": 31864,
      "componentType": 5126,
      "count": 476,
      "max": [
        0.875,
        1.0
      ],
      "min": [
        0.125,
        0.0
      ],
      "type": "VEC2"
    },
    {
      "bufferView": 0,
      "byteOffset": 40368,
      "componentType": 5125,
      "count": 696,
      "type": "SCALAR"
    },
    {
      "bufferView": 2,
      "byteOffset": 107016,
      "componentType": 5126,
      "count": 38,
      "max": [
        -14.119568824768066,
        4.9449944496154785,
        -2.4333198070526123
      ],
      "min": [
        -16.534921646118164,
        -4.9449944496154785,
        -3.5422470569610596
      ],
      "type": "VEC3"
    },
    {
      "bufferView": 2,
      "byteOffset": 107472,
      "componentType": 5126,
      "count": 38,
      "max": [
        0.8992735147476196,
        0.9285049438476563,
        0.9318124651908875
      ],
      "min": [
        -0.619734525680542,
        -0.9285046458244324,
        -0.9564414024353027
      ],
      "type": "VEC3"
    },
    {
      "bufferView": 1,
      "byteOffset": 35672,
      "componentType": 5126,
      "count": 38,
      "max": [
        1.0,
        0.0
      ],
      "min": [
        1.0,
        0.0
      ],
      "type": "VEC2"
    },
    {
      "bufferView": 0,
      "byteOffset": 43152,
      "componentType": 5125,
      "count": 120,
      "type": "SCALAR"
    },
    {
      "bufferView": 2,
      "byteOffset": 107928,
      "componentType": 5126,
      "count": 1840,
      "max": [
        6.130937576293945,
        5.627602577209473,
        -2.6941142082214355
      ],
      "min": [
        -13.047649383544922,
        -5.627601623535156,
        -6.192225456237793
      ],
      "type": "VEC3"
    },
    {
      "bufferView": 2,
      "byteOffset": 130008,
      "componentType": 5126,
      "count": 1840,
      "max": [
        1.0,
        1.0,
        1.0
      ],
      "min": [
        -1.0,
        -1.0,
        -1.0
      ],
      "type": "VEC3"
    },
    {
      "bufferView": 1,
      "byteOffset": 35976,
      "componentType": 5126,
      "count": 1840,
      "max": [
        0.0,
        0.0
      ],
      "min": [
        0.0,
        0.0
      ],
      "type": "VEC2"
    },
    {
      "bufferView": 0,
      "byteOffset": 43632,
      "componentType": 5125,
      "count": 5496,
      "type": "SCALAR"
    },
    {
      "bufferView": 2,
      "byteOffset": 152088,
      "componentType": 5126,
      "count": 112,
      "max": [
        5.747993469238281,
        5.233404159545898,
        -3.486980438232422
      ],
      "min": [
        -10.948835372924805,
        -5.23340368270874,
        -5.583806037902832
      ],
      "type": "VEC3"
    },
    {
      "bufferView": 2,
      "byteOffset": 153432,
      "componentType": 5126,
      "count": 112,
      "max": [
        0.9962353110313416,
        1.0,
        0.9999823570251465
      ],
      "min": [
        -0.9876458048820496,
        -1.0,
        -0.9436523914337158
      ],
      "type": "VEC3"
    },
    {
      "bufferView": 1,
      "byteOffset": 50696,
      "componentType": 5126,
      "count": 112,
      "max": [
        0.875,
        1.0
      ],
      "min": [
        0.625,
        0.5
      ],
      "type": "VEC2"
    },
    {
      "bufferView": 0,
      "byteOffset": 65616,
      "componentType": 5125,
      "count": 240,
      "type": "SCALAR"
    },
    {
      "bufferView": 2,
      "byteOffset": 154776,
      "componentType": 5126,
      "count": 520,
      "max": [
        4.906837463378906,
        5.54158878326416,
        -3.8912618160247803
      ],
      "min": [
        -11.840045928955078,
        -5.541587829589844,
        -4.937673568725586
      ],
      "type": "VEC3"
    },
    {
      "bufferView": 2,
      "byteOffset": 161016,
      "componentType": 5126,
      "count": 520,
      "max": [
        0.9919277429580688,
        1.0,
        0.9994661211967468
      ],
      "min": [
        -0.999997079372406,
        -1.0,
        -0.9979408979415894
      ],
      "type": "VEC3"
    },
    {
      "bufferView": 1,
      "byteOffset": 51592,
      "componentType": 5126,
      "count": 520,
      "max": [
        1.0,
        1.0
      ],
      "min": [
        -8.940696716308594e-08,
        0.01000000536441803
      ],
      "type": "VEC2"
    },
    {
      "bufferView": 0,
      "byteOffset": 66576,
      "componentType": 5125,
      "count": 1200,
      "type": "SCALAR"
    },
    {
      "bufferView": 2,
      "byteOffset": 167256,
      "componentType": 5126,
      "count": 480,
      "max": [
        5.680170059204102,
        5.136162757873535,
        -3.144880771636963
      ],
      "min": [
        -12.596882820129395,
        -5.136162757873535,
        -5.741458892822266
      ],
      "type": "VEC3"
    },
    {
      "bufferView": 2,
      "byteOffset": 173016,
      "componentType": 5126,
      "count": 480,
      "max": [
        0.9876893162727356,
        1.0,
        0.9876885414123535
      ],
      "min": [
        -0.9876893162727356,
        -1.0,
        -0.9876885414123535
      ],
      "type": "VEC3"
    },
    {
      "bufferView": 1,
      "byteOffset": 55752,
      "componentType": 5126,
      "count": 480,
      "max": [
        1.0,
        1.0
      ],
      "min": [
        -1.564621925354004e-07,
        0.01000000536441803
      ],
      "type": "VEC2"
    },
    {
      "bufferView": 0,
      "byteOffset": 71376,
      "componentType": 5125,
      "count": 912,
      "type": "SCALAR"
    }
  ],
  "asset": {
    "extras": {
      "author": "Lolik123654 (https://sketchfab.com/Lolik123654)",
      "license": "CC-BY-4.0 (http://creativecommons.org/licenses/by/4.0/)",
      "source": "https://sketchfab.com/3d-models/lowpoly-lamborghini-aventador-fa870a26ccb8401cb5c9809349592eeb",
      "title": "LowPoly Lamborghini Aventador"
    },
    "generator": "Sketchfab-12.68.0",
    "version": "2.0"
  },
  "bufferViews": [
    {
      "buffer": 0,
      "byteLength": 75024,
      "name": "floatBufferViews",
      "target": 34963
    },
    {
      "buffer": 0,
      "byteLength": 59592,
      "byteOffset": 75024,
      "byteStride": 8,
      "name": "floatBufferViews",
      "target": 34962
    },
    {
      "buffer": 0,
      "byteLength": 178776,
      "byteOffset": 134616,
      "byteStride": 12,
      "name": "floatBufferViews",
      "target": 34962
    }
  ],
  "buffers": [
    {
      "byteLength": 313392,
      "uri": "scene.bin"
    }
  ],
  "materials": [
    {
      "doubleSided": true,
      "name": "Material",
      "pbrMetallicRoughness": {
        "baseColorFactor": [
          0.0908381,
          0.0908381,
          0.0908381,
          1.0
        ],
        "metallicFactor": 0.0
      }
    },
    {
      "doubleSided": true,
      "name": "Material.004",
      "pbrMetallicRoughness": {
        "baseColorFactor": [
          0.0549691,
          0.0549691,
          0.0549691,
          1.0
        ],
        "metallicFactor": 0.0
      }
    },
    {
      "doubleSided": true,
      "name": "Material.001",
      "pbrMetallicRoughness": {
        "baseColorFactor": [
          0.0331028,
          0.0331028,
          0.0331028,
          1.0
        ],
        "metallicFactor": 0.0,
        "roughnessFactor": 0.992597988895442
      }
    },
    {
      "doubleSided": true,
      "name": "Material.005",
      "pbrMetallicRoughness": {
        "baseColorFactor": [
          0.79754,
          0.947248,
          1.0,
          1.0
        ],
        "metallicFactor": 0.0,
        "roughnessFactor": 0.08075229982549903
      }
    },
    {
      "doubleSided": true,
      "emissiveFactor": [
        1.0,
        0.042203664667877644,
        0.0
      ],
      "name": "Material.002",
      "pbrMetallicRoughness": {
        "baseColorFactor": [
          1.0,
          0.09760766351008715,
          0.0,
          1.0
        ],
        "metallicFactor": 0.0,
        "roughnessFactor": 0.8040408205773457
      }
    },
    {
      "doubleSided": true,
      "emissiveFactor": [
        1.0,
        1.0,
        1.0
      ],
      "name": "Material.003",
      "pbrMetallicRoughness": {
        "baseColorFactor": [
          0.8,
          0.8,
          0.8,
          1.0
        ],
        "metallicFactor": 0.0,
        "roughnessFactor": 0.8040408205773457
      }
    },
    {
      "doubleSided": true,
      "name": "Material.008",
      "pbrMetallicRoughness": {
        "baseColorFactor": [
          0.151566,
          0.156964,
          0.157435,
          1.0
        ],
        "metallicFactor": 0.0,
        "roughnessFactor": 0.9651507930509652
      }
    },
    {
      "doubleSided": true,
      "name": "Material.006",
      "pbrMetallicRoughness": {
        "baseColorFactor": [
          0.7999999999999999,
          0.38703799999999977,
          0.10852399999999995,
          1.0
        ],
        "metallicFactor": 0.0,
        "roughnessFactor": 0.8983203965676301
      }
    },
    {
      "doubleSided": true,
      "name": "Material.009",
      "pbrMetallicRoughness": {
        "baseColorFactor": [
          0.226584,
          0.226584,
          0.226584,
          1.0
        ],
        "metallicFactor": 0.0,
        "roughnessFactor": 0.9493342773386187
      }
    },
    {
      "doubleSided": true,
      "name": "Material.007",
      "pbrMetallicRoughness": {
        "baseColorFactor": [
          0.108096,
          0.134781,
          0.142401,
          1.0
        ],
        "metallicFactor": 0.0,
        "roughnessFactor": 0.9710076047989886
      }
    }
  ],
  "meshes": [
    {
      "name": "Plane_Material_0",
      "primitives": [
        {
          "attributes": {
            "NORMAL": 1,
            "POSITION": 0,
            "TEXCOORD_0": 2
          },
          "indices": 3,
          "material": 0,
          "mode": 4
        }
      ]
    },
    {
      "name": "Plane_Material.004_0",
      "primitives": [
        {
          "attributes": {
            "NORMAL": 5,
            "POSITION": 4,
            "TEXCOORD_0": 6
          },
          "indices": 7,
          "material": 1,
          "mode": 4
        }
      ]
    },
    {
      "name": "Plane_Material.001_0",
      "primitives": [
        {
          "attributes": {
            "NORMAL": 9,
            "POSITION": 8,
            "TEXCOORD_0": 10
          },
          "indices": 11,
          "material": 2,
          "mode": 4
        }
      ]
    },
    {
      "name": "Plane_Material.005_0",
      "primitives": [
        {
          "attributes": {
            "NORMAL": 13,
            "POSITION": 12,
            "TEXCOORD_0": 14
          },
          "indices": 15,
          "material": 3,
          "mode": 4
        }
      ]
    },
    {
      "name": "Plane_Material.002_0",
      "primitives": [
        {
          "attributes": {
            "NORMAL": 17,
            "POSITION": 16,
            "TEXCOORD_0": 18
          },
          "indices": 19,
          "material": 4,
          "mode": 4
        }
      ]
    },
    {
      "name": "Plane_Material.003_0",
      "primitives": [
        {
          "attributes": {
            "NORMAL": 21,
            "POSITION": 20,
            "TEXCOORD_0": 22
          },
          "indices": 23,
          "material": 5,
          "mode": 4
        }
      ]
    },
    {
      "name": "Plane_Material.008_0",
      "primitives": [
        {
          "attributes": {
            "NORMAL": 25,
            "POSITION": 24,
            "TEXCOORD_0": 26
          },
          "indices": 27,
          "material": 6,
          "mode": 4
        }
      ]
    },
    {
      "name": "Plane_Material.006_0",
      "primitives": [
        {
          "attributes": {
            "NORMAL": 29,
            "POSITION": 28,
            "TEXCOORD_0": 30
          },
          "indices": 31,
          "material": 7,
          "mode": 4
        }
      ]
    },
    {
      "name": "Plane_Material.009_0",
      "primitives": [
        {
          "attributes": {
            "NORMAL": 33,
            "POSITION": 32,
            "TEXCOORD_0": 34
          },
          "indices": 35,
          "material": 8,
          "mode": 4
        }
      ]
    },
    {
      "name": "Plane_Material.007_0",
      "primitives": [
        {
          "attributes": {
            "NORMAL": 37,
            "POSITION": 36,
            "TEXCOORD_0": 38
          },
          "indices": 39,
          "material": 9,
          "mode": 4
        }
      ]
    }
  ],
  "nodes": [
    {
      "children": [
        1
      ],
      "matrix": [
        1.0,
        0.0,
        0.0,
        0.0,
        0.0,
        2.220446049250313e-16,
        -1.0,
        0.0,
        0.0,
        1.0,
        2.220446049250313e-16,
        0.0,
        0.0,
        0.0,
        0.0,
        1.0
      ],
      "name": "Sketchfab_model"
    },
    {
      "children": [
        2
      ],
      "matrix": [
        1.0,
        0.0,
        0.0,
        0.0,
        0.0,
        0.0,
        1.0,
        0.0,
        0.0,
        -1.0,
        0.0,
        0.0,
        0.0,
        0.0,
        0.0,
        1.0
      ],
      "name": "cf73817f674e46c6999f55f9ec02c49c.fbx"
    },
    {
      "children": [
        3
      ],
      "name": "RootNode"
    },
    {
      "children": [
        4,
        5,
        6,
        7,
        8,
        9,
        10,
        11,
        12,
        13
      ],
      "matrix": [
        17.620924300826594,
        -0.25638334542284796,
        -2.3210169522824097e-08,
        0.0,
        -6.497786196227862e-08,
        -2.8704752909210817e-06,
        -17.622789382934336,
        0.0,
        0.25638334542284075,
        17.620924300826363,
        -2.871116822959899e-06,
        0.0,
        77.0870590209961,
        112.37857055664063,
        -2.2452684788731858e-05,
        1.0
      ],
      "name": "Plane"
    },
    {
      "mesh": 0,
      "name": "Plane_Material_0"
    },
    {
      "mesh": 1,
      "name": "Plane_Material.004_0"
    },
    {
      "mesh": 2,
      "name": "Plane_Material.001_0"
    },
    {
      "mesh": 3,
      "name": "Plane_Material.005_0"
    },
    {
      "mesh": 4,
      "name": "Plane_Material.002_0"
    },
    {
      "mesh": 5,
      "name": "Plane_Material.003_0"
    },
    {
      "mesh": 6,
      "name": "Plane_Material.008_0"
    },
    {
      "mesh": 7,
      "name": "Plane_Material.006_0"
    },
    {
      "mesh": 8,
      "name": "Plane_Material.009_0"
    },
    {
      "mesh": 9,
      "name": "Plane_Material.007_0"
    }
  ],
  "scene": 0,
  "scenes": [
    {
      "name": "Sketchfab_Scene",
      "nodes": [
        0
      ]
    }
  ]
}
